<mxfile host="app.diagrams.net" modified="2022-12-17T06:46:38.126Z" agent="5.0 (Windows NT 10.0; Win64; x64) AppleWebKit/537.36 (KHTML, like Gecko) Chrome/93.0.4577.63 Safari/537.36" version="20.6.2" etag="XlsRRuUSvhKl56m92KNZ" type="github">
  <diagram id="XPHGXNMReBrfREELwPxk" name="第 1 页">
    <mxGraphModel dx="2062" dy="1066" grid="1" gridSize="10" guides="1" tooltips="1" connect="1" arrows="1" fold="1" page="1" pageScale="1" pageWidth="827" pageHeight="1169" math="0" shadow="0">
      <root>
        <mxCell id="0" />
        <mxCell id="1" parent="0" />
        <mxCell id="ToZwfog0YWxX7Lkb7_2q-6" style="rounded=0;orthogonalLoop=1;jettySize=auto;html=1;exitX=0;exitY=1;exitDx=0;exitDy=0;entryX=0.5;entryY=0;entryDx=0;entryDy=0;endArrow=none;endFill=0;" edge="1" parent="1" source="ToZwfog0YWxX7Lkb7_2q-1" target="ToZwfog0YWxX7Lkb7_2q-2">
          <mxGeometry relative="1" as="geometry" />
        </mxCell>
        <mxCell id="ToZwfog0YWxX7Lkb7_2q-7" style="edgeStyle=none;rounded=0;orthogonalLoop=1;jettySize=auto;html=1;exitX=1;exitY=1;exitDx=0;exitDy=0;entryX=0.5;entryY=0;entryDx=0;entryDy=0;endArrow=none;endFill=0;" edge="1" parent="1" source="ToZwfog0YWxX7Lkb7_2q-1" target="ToZwfog0YWxX7Lkb7_2q-3">
          <mxGeometry relative="1" as="geometry" />
        </mxCell>
        <mxCell id="ToZwfog0YWxX7Lkb7_2q-1" value="/" style="ellipse;whiteSpace=wrap;html=1;" vertex="1" parent="1">
          <mxGeometry x="340" y="170" width="60" height="30" as="geometry" />
        </mxCell>
        <mxCell id="ToZwfog0YWxX7Lkb7_2q-8" style="edgeStyle=none;rounded=0;orthogonalLoop=1;jettySize=auto;html=1;exitX=0;exitY=1;exitDx=0;exitDy=0;entryX=0.5;entryY=0;entryDx=0;entryDy=0;endArrow=none;endFill=0;" edge="1" parent="1" source="ToZwfog0YWxX7Lkb7_2q-2" target="ToZwfog0YWxX7Lkb7_2q-4">
          <mxGeometry relative="1" as="geometry" />
        </mxCell>
        <mxCell id="ToZwfog0YWxX7Lkb7_2q-9" style="edgeStyle=none;rounded=0;orthogonalLoop=1;jettySize=auto;html=1;exitX=1;exitY=1;exitDx=0;exitDy=0;entryX=0.5;entryY=0;entryDx=0;entryDy=0;endArrow=none;endFill=0;" edge="1" parent="1" source="ToZwfog0YWxX7Lkb7_2q-2" target="ToZwfog0YWxX7Lkb7_2q-5">
          <mxGeometry relative="1" as="geometry" />
        </mxCell>
        <mxCell id="ToZwfog0YWxX7Lkb7_2q-2" value="fat" style="ellipse;whiteSpace=wrap;html=1;" vertex="1" parent="1">
          <mxGeometry x="270" y="230" width="60" height="30" as="geometry" />
        </mxCell>
        <mxCell id="ToZwfog0YWxX7Lkb7_2q-18" style="edgeStyle=none;rounded=0;orthogonalLoop=1;jettySize=auto;html=1;exitX=0.5;exitY=1;exitDx=0;exitDy=0;entryX=0.5;entryY=0;entryDx=0;entryDy=0;dashed=1;endArrow=none;endFill=0;" edge="1" parent="1" source="ToZwfog0YWxX7Lkb7_2q-3" target="ToZwfog0YWxX7Lkb7_2q-17">
          <mxGeometry relative="1" as="geometry" />
        </mxCell>
        <mxCell id="ToZwfog0YWxX7Lkb7_2q-3" value="ext" style="ellipse;whiteSpace=wrap;html=1;" vertex="1" parent="1">
          <mxGeometry x="400" y="230" width="60" height="30" as="geometry" />
        </mxCell>
        <mxCell id="ToZwfog0YWxX7Lkb7_2q-14" style="edgeStyle=none;rounded=0;orthogonalLoop=1;jettySize=auto;html=1;exitX=0.5;exitY=1;exitDx=0;exitDy=0;entryX=0.5;entryY=0;entryDx=0;entryDy=0;endArrow=none;endFill=0;dashed=1;" edge="1" parent="1" source="ToZwfog0YWxX7Lkb7_2q-4" target="ToZwfog0YWxX7Lkb7_2q-10">
          <mxGeometry relative="1" as="geometry" />
        </mxCell>
        <mxCell id="ToZwfog0YWxX7Lkb7_2q-4" value="A" style="ellipse;whiteSpace=wrap;html=1;" vertex="1" parent="1">
          <mxGeometry x="200" y="290" width="60" height="30" as="geometry" />
        </mxCell>
        <mxCell id="ToZwfog0YWxX7Lkb7_2q-16" style="edgeStyle=none;rounded=0;orthogonalLoop=1;jettySize=auto;html=1;exitX=0.5;exitY=1;exitDx=0;exitDy=0;entryX=0.5;entryY=0;entryDx=0;entryDy=0;endArrow=none;endFill=0;dashed=1;" edge="1" parent="1" source="ToZwfog0YWxX7Lkb7_2q-5" target="ToZwfog0YWxX7Lkb7_2q-15">
          <mxGeometry relative="1" as="geometry" />
        </mxCell>
        <mxCell id="ToZwfog0YWxX7Lkb7_2q-5" value="B" style="ellipse;whiteSpace=wrap;html=1;" vertex="1" parent="1">
          <mxGeometry x="330" y="290" width="60" height="30" as="geometry" />
        </mxCell>
        <mxCell id="ToZwfog0YWxX7Lkb7_2q-13" style="edgeStyle=none;rounded=0;orthogonalLoop=1;jettySize=auto;html=1;exitX=0.5;exitY=1;exitDx=0;exitDy=0;entryX=0.5;entryY=0;entryDx=0;entryDy=0;endArrow=none;endFill=0;dashed=1;" edge="1" parent="1" source="ToZwfog0YWxX7Lkb7_2q-10" target="ToZwfog0YWxX7Lkb7_2q-11">
          <mxGeometry relative="1" as="geometry" />
        </mxCell>
        <mxCell id="ToZwfog0YWxX7Lkb7_2q-10" value="INFO" style="rounded=0;whiteSpace=wrap;html=1;" vertex="1" parent="1">
          <mxGeometry x="205" y="340" width="50" height="20" as="geometry" />
        </mxCell>
        <mxCell id="ToZwfog0YWxX7Lkb7_2q-11" value="INFO" style="rounded=0;whiteSpace=wrap;html=1;" vertex="1" parent="1">
          <mxGeometry x="205" y="370" width="50" height="20" as="geometry" />
        </mxCell>
        <mxCell id="ToZwfog0YWxX7Lkb7_2q-15" value="INFO" style="rounded=0;whiteSpace=wrap;html=1;" vertex="1" parent="1">
          <mxGeometry x="335" y="340" width="50" height="20" as="geometry" />
        </mxCell>
        <mxCell id="ToZwfog0YWxX7Lkb7_2q-17" value="INFO" style="rounded=0;whiteSpace=wrap;html=1;" vertex="1" parent="1">
          <mxGeometry x="405" y="280" width="50" height="20" as="geometry" />
        </mxCell>
        <mxCell id="ToZwfog0YWxX7Lkb7_2q-19" value="" style="endArrow=none;html=1;rounded=0;" edge="1" parent="1">
          <mxGeometry width="50" height="50" relative="1" as="geometry">
            <mxPoint x="527" y="186" as="sourcePoint" />
            <mxPoint x="557" y="186" as="targetPoint" />
          </mxGeometry>
        </mxCell>
        <mxCell id="ToZwfog0YWxX7Lkb7_2q-20" value="前缀树节点指针" style="text;html=1;strokeColor=none;fillColor=none;align=center;verticalAlign=middle;whiteSpace=wrap;rounded=0;" vertex="1" parent="1">
          <mxGeometry x="562" y="170" width="90" height="30" as="geometry" />
        </mxCell>
        <mxCell id="ToZwfog0YWxX7Lkb7_2q-21" value="" style="endArrow=none;html=1;rounded=0;dashed=1;" edge="1" parent="1">
          <mxGeometry width="50" height="50" relative="1" as="geometry">
            <mxPoint x="527" y="216" as="sourcePoint" />
            <mxPoint x="557" y="216" as="targetPoint" />
          </mxGeometry>
        </mxCell>
        <mxCell id="ToZwfog0YWxX7Lkb7_2q-22" value="挂载点信息栈指针" style="text;html=1;strokeColor=none;fillColor=none;align=center;verticalAlign=middle;whiteSpace=wrap;rounded=0;" vertex="1" parent="1">
          <mxGeometry x="563" y="200" width="100" height="30" as="geometry" />
        </mxCell>
        <mxCell id="ToZwfog0YWxX7Lkb7_2q-23" value="INFO" style="rounded=0;whiteSpace=wrap;html=1;" vertex="1" parent="1">
          <mxGeometry x="510" y="235" width="50" height="20" as="geometry" />
        </mxCell>
        <mxCell id="ToZwfog0YWxX7Lkb7_2q-24" value="挂载点信息" style="text;html=1;strokeColor=none;fillColor=none;align=center;verticalAlign=middle;whiteSpace=wrap;rounded=0;" vertex="1" parent="1">
          <mxGeometry x="560" y="230" width="70" height="30" as="geometry" />
        </mxCell>
      </root>
    </mxGraphModel>
  </diagram>
</mxfile>
